# xmcd
#
# Track frame offsets: 
#        150
#        13057
#        27231
#        42103
#        56904
#        70490
#        80199
#        94339
#        107408
#        121304
#        135458
#        151130
#        166048
#        179205
#        193170
#        204478
#        217846
#        232123
#        244021
#        257925
#        271813
#        283217
#        296857
#        311730
#        325140
#
# Disc length: 4525 seconds
#
# Revision: 0
# Processed by: cddbd v1.5.2PL0 Copyright (c) Steve Scherf et al.
# Submitted via: ExactAudioCopy v0.95b4
#
DISCID=7e11ab19
DTITLE=Billie Holiday - Lady Day
DYEAR=2007
DGENRE=Blues
TTITLE0=A Fine Romance
TTITLE1=Carelessly
TTITLE2=Pennies From Heaven
TTITLE3=Strange Fruit
TTITLE4=Night And Day
TTITLE5=I'm Gonna Lock My Heart
TTITLE6=Mean To Me
TTITLE7=A Sailboat In The Moonlight
TTITLE8=They Can't Take That Away From Me
TTITLE9=This Year's Kisses
TTITLE10=I Can't Give You Anything But Love
TTITLE11=These Foolish Things
TTITLE12=That Ole Devil Called Love
TTITLE13=The Way You Look Tonight
TTITLE14=No Regrets
TTITLE15=I've Got My Love To Keep Me Warm
TTITLE16=This Is My Last Affair
TTITLE17=Me, Myself And I
TTITLE18=Getting Some Fun Out Of Life
TTITLE19=Moanin' Low
TTITLE20=How Could You?
TTITLE21=The Mood That I'm In
TTITLE22=Lover Man (Oh Where Can You Be)
TTITLE23=God Bless The Child
TTITLE24=As Time Goes By
EXTD=
EXTT0=
EXTT1=
EXTT2=
EXTT3=
EXTT4=
EXTT5=
EXTT6=
EXTT7=
EXTT8=
EXTT9=
EXTT10=
EXTT11=
EXTT12=
EXTT13=
EXTT14=
EXTT15=
EXTT16=
EXTT17=
EXTT18=
EXTT19=
EXTT20=
EXTT21=
EXTT22=
EXTT23=
EXTT24=
PLAYORDER=
